<?xml version="1.0" encoding="UTF-8"?>
<!-- Created with Inkscape (http://www.inkscape.org/) -->
<svg width="55mm" height="34mm" version="1.1" viewBox="0 0 55 34" xmlns="http://www.w3.org/2000/svg">
 <g transform="translate(-60.898 -97.834)">
  <path d="m61.239 98.176h54.317v33.317h-54.317z" fill="#fff" stroke="#fff" stroke-linejoin="round" stroke-width=".68323" style="paint-order:fill markers stroke"/>
  <g transform="matrix(1 0 0 .98486 333.21 230.05)">
   <g transform="scale(1.0043 .9957)" fill="#216778" stroke-width=".56432" aria-label="FOO">
    <path d="m-262.1-113.7h-4.0631v-15.801h12.528v3.1602h-8.4649v3.7245h6.659v3.1602h-6.659z"/>
    <path d="m-241.89-125.21q0-1.3544-1.3544-1.3544h-3.8374q-1.3544 0-1.3544 1.3544v7.2234q0 1.3544 1.3544 1.3544h3.8374q1.3544 0 1.3544-1.3544zm4.0631 7.2234q0 2.3702-1.0835 3.4537-1.0609 1.0609-3.4311 1.0609h-5.6432q-2.3702 0-3.4537-1.0609-1.0609-1.0835-1.0609-3.4537v-7.2234q0-2.3702 1.0609-3.4311 1.0835-1.0835 3.4537-1.0835h5.6432q2.3702 0 3.4311 1.0835 1.0835 1.0609 1.0835 3.4311z"/>
    <path d="m-225.42-125.21q0-1.3544-1.3544-1.3544h-3.8374q-1.3544 0-1.3544 1.3544v7.2234q0 1.3544 1.3544 1.3544h3.8374q1.3544 0 1.3544-1.3544zm4.0631 7.2234q0 2.3702-1.0835 3.4537-1.0609 1.0609-3.4311 1.0609h-5.6432q-2.3702 0-3.4537-1.0609-1.0609-1.0835-1.0609-3.4537v-7.2234q0-2.3702 1.0609-3.4311 1.0835-1.0835 3.4537-1.0835h5.6432q2.3702 0 3.4311 1.0835 1.0835 1.0609 1.0835 3.4311z"/>
   </g>
   <g transform="scale(1.0612 .94235)" stroke-width=".23172" aria-label="FACTORY">
    <path d="m-250.23-111.31h-1.6684v-6.4883h5.1443v1.2977h-3.4759v1.5294h2.7344v1.2977h-2.7344z"/>
    <path d="m-245.5-111.31h-1.8074l2.4563-6.4883h1.8538l2.4563 6.4883h-1.8075l-0.4171-1.1586h-2.3172zm0.83421-2.3636h1.483l-0.74152-2.1782z"/>
    <path d="m-235.26-111.4q-2.067 0.18538-3.4295 0.18538-0.90837 0-1.3347-0.42638-0.42637-0.42637-0.42637-1.3347v-2.9661q0-0.97325 0.43564-1.4089 0.44491-0.44491 1.4182-0.44491h3.3368v1.2977h-2.9661q-0.55614 0-0.55614 0.55614v2.9661q0 0.21318 0.12049 0.34295 0.12977 0.1205 0.32442 0.1205t0.42637 0q0.23173-9e-3 0.48199-0.0185 0.25026-9e-3 0.50053-0.0185 0.25953-9e-3 0.65809-0.0371 0.40784-0.0278 1.0103-0.0649z"/>
    <path d="m-231.37-111.31h-1.6684v-5.1906h-1.9465v-1.2977h5.5614v1.2977h-1.9465z"/>
    <path d="m-224.6-116.03q0-0.55614-0.55614-0.55614h-1.5757q-0.55614 0-0.55614 0.55614v2.9661q0 0.55614 0.55614 0.55614h1.5757q0.55614 0 0.55614-0.55614zm1.6684 2.9661q0 0.97324-0.44491 1.4182-0.43564 0.43565-1.4089 0.43565h-2.3172q-0.97324 0-1.4182-0.43565-0.43565-0.44491-0.43565-1.4182v-2.9661q0-0.97325 0.43565-1.4089 0.44491-0.44491 1.4182-0.44491h2.3172q0.97325 0 1.4089 0.44491 0.44491 0.43564 0.44491 1.4089z"/>
    <path d="m-222.01-117.8h3.893q0.97325 0 1.4089 0.44491 0.44491 0.43564 0.44491 1.4089v0.83421q0 0.76932-0.25953 1.1957-0.25026 0.42637-0.8064 0.56541l1.1586 2.0392h-1.8074l-1.0659-1.9465h-1.2977v1.9465h-1.6684zm4.0784 1.8538q0-0.55614-0.55614-0.55614h-1.8538v1.9465h1.8538q0.55614 0 0.55614-0.55614z"/>
    <path d="m-216.07-117.8h1.7611l1.5294 3.1515 1.5294-3.1515h1.7611l-2.4563 4.7735v1.7148h-1.6684v-1.7148z"/>
   </g>
  </g>
 </g>
</svg>
