<?xml version="1.0" encoding="UTF-8" standalone="no"?>
<!-- Created with Inkscape (http://www.inkscape.org/) -->

<svg
   width="55mm"
   height="34mm"
   version="1.1"
   viewBox="0 0 55 34"
   id="svg16"
   sodipodi:docname="foofactory.svg"
   inkscape:version="1.1.2 (0a00cf5339, 2022-02-04)"
   xmlns:inkscape="http://www.inkscape.org/namespaces/inkscape"
   xmlns:sodipodi="http://sodipodi.sourceforge.net/DTD/sodipodi-0.dtd"
   xmlns="http://www.w3.org/2000/svg"
   xmlns:svg="http://www.w3.org/2000/svg">
  <defs
     id="defs20" />
  <sodipodi:namedview
     id="namedview18"
     pagecolor="#ffffff"
     bordercolor="#666666"
     borderopacity="1.0"
     inkscape:pageshadow="2"
     inkscape:pageopacity="0.0"
     inkscape:pagecheckerboard="0"
     inkscape:document-units="mm"
     showgrid="false"
     inkscape:zoom="5.5951593"
     inkscape:cx="103.92912"
     inkscape:cy="64.251969"
     inkscape:window-width="1920"
     inkscape:window-height="1016"
     inkscape:window-x="0"
     inkscape:window-y="27"
     inkscape:window-maximized="1"
     inkscape:current-layer="svg16" />
  <g
     transform="translate(-60.898 -97.834)"
     id="g14">
    <path
       id="rect2"
       style="opacity:0.93;fill:#ffffff;stroke:#ffffff;stroke-width:0.68323;stroke-linejoin:round;paint-order:fill markers stroke"
       d="M 61.238998,98.176003 H 115.556 V 131.493 H 61.238998 Z" />
    <g
       transform="matrix(1 0 0 .98486 333.21 230.05)"
       font-family="'Russo One'"
       letter-spacing="0px"
       word-spacing="0px"
       id="g12">
      <g
         aria-label="FOO"
         transform="scale(1.0043 .9957)"
         id="text6"
         style="font-size:22.573px;line-height:1.25;fill:#216778;stroke-width:0.56432">
        <path
           d="m -262.09731,-113.70236 h -4.06314 v -15.8011 h 12.52801 v 3.16022 h -8.46487 v 3.72454 h 6.65903 v 3.16022 h -6.65903 z"
           id="path838" />
        <path
           d="m -241.89452,-125.21459 q 0,-1.35438 -1.35438,-1.35438 h -3.83741 q -1.35438,0 -1.35438,1.35438 v 7.22336 q 0,1.35438 1.35438,1.35438 h 3.83741 q 1.35438,0 1.35438,-1.35438 z m 4.06314,7.22336 q 0,2.37016 -1.0835,3.45367 -1.06093,1.06093 -3.4311,1.06093 h -5.64325 q -2.37016,0 -3.45367,-1.06093 -1.06093,-1.08351 -1.06093,-3.45367 v -7.22336 q 0,-2.37017 1.06093,-3.4311 1.08351,-1.0835 3.45367,-1.0835 h 5.64325 q 2.37017,0 3.4311,1.0835 1.0835,1.06093 1.0835,3.4311 z"
           id="path840" />
        <path
           d="m -225.41624,-125.21459 q 0,-1.35438 -1.35438,-1.35438 h -3.83741 q -1.35438,0 -1.35438,1.35438 v 7.22336 q 0,1.35438 1.35438,1.35438 h 3.83741 q 1.35438,0 1.35438,-1.35438 z m 4.06314,7.22336 q 0,2.37016 -1.0835,3.45367 -1.06094,1.06093 -3.4311,1.06093 h -5.64325 q -2.37017,0 -3.45367,-1.06093 -1.06093,-1.08351 -1.06093,-3.45367 v -7.22336 q 0,-2.37017 1.06093,-3.4311 1.0835,-1.0835 3.45367,-1.0835 h 5.64325 q 2.37016,0 3.4311,1.0835 1.0835,1.06093 1.0835,3.4311 z"
           id="path842" />
      </g>
      <g
         aria-label="FACTORY"
         transform="scale(1.0612 .94235)"
         id="text10"
         style="font-size:9.269px;line-height:1.25;stroke-width:0.23172">
        <path
           d="m -250.22956,-111.30711 h -1.66842 v -6.4883 h 5.1443 v 1.29766 h -3.47588 v 1.52938 h 2.73436 v 1.29766 h -2.73436 z"
           id="path845" />
        <path
           d="m -245.5024,-111.30711 h -1.80745 l 2.45628,-6.4883 h 1.8538 l 2.45629,6.4883 h -1.80746 l -0.4171,-1.15863 h -2.31725 z m 0.83421,-2.3636 h 1.48304 l -0.74152,-2.17821 z"
           id="path847" />
        <path
           d="m -235.26016,-111.3998 q -2.06699,0.18538 -3.42953,0.18538 -0.90837,0 -1.33474,-0.42638 -0.42637,-0.42637 -0.42637,-1.33473 v -2.96608 q 0,-0.97325 0.43564,-1.40889 0.44491,-0.44491 1.41816,-0.44491 h 3.33684 v 1.29766 h -2.96608 q -0.55614,0 -0.55614,0.55614 v 2.96608 q 0,0.21318 0.12049,0.34295 0.12977,0.1205 0.32442,0.1205 0.19465,0 0.42637,0 0.23173,-0.009 0.48199,-0.0185 0.25026,-0.009 0.50053,-0.0185 0.25953,-0.009 0.65809,-0.0371 0.40784,-0.0278 1.01033,-0.0649 z"
           id="path849" />
        <path
           d="m -231.36719,-111.30711 h -1.66842 v -5.19064 h -1.94649 v -1.29766 h 5.5614 v 1.29766 h -1.94649 z"
           id="path851" />
        <path
           d="m -224.60084,-116.0343 q 0,-0.55614 -0.55614,-0.55614 h -1.57573 q -0.55614,0 -0.55614,0.55614 v 2.96608 q 0,0.55614 0.55614,0.55614 h 1.57573 q 0.55614,0 0.55614,-0.55614 z m 1.66842,2.96608 q 0,0.97324 -0.44491,1.41815 -0.43564,0.43565 -1.40889,0.43565 h -2.31725 q -0.97324,0 -1.41815,-0.43565 -0.43565,-0.44491 -0.43565,-1.41815 v -2.96608 q 0,-0.97325 0.43565,-1.40889 0.44491,-0.44491 1.41815,-0.44491 h 2.31725 q 0.97325,0 1.40889,0.44491 0.44491,0.43564 0.44491,1.40889 z"
           id="path853" />
        <path
           d="m -222.00552,-117.79541 h 3.89298 q 0.97325,0 1.40889,0.44491 0.44491,0.43564 0.44491,1.40889 v 0.83421 q 0,0.76932 -0.25953,1.1957 -0.25026,0.42637 -0.8064,0.56541 l 1.15862,2.03918 h -1.80745 l -1.06594,-1.94649 h -1.29766 v 1.94649 h -1.66842 z m 4.07836,1.8538 q 0,-0.55614 -0.55614,-0.55614 h -1.8538 v 1.94649 h 1.8538 q 0.55614,0 0.55614,-0.55614 z"
           id="path855" />
        <path
           d="m -216.07337,-117.79541 h 1.76111 l 1.52939,3.15146 1.52938,-3.15146 h 1.76111 l -2.45628,4.77353 v 1.71477 h -1.66842 v -1.71477 z"
           id="path857" />
      </g>
    </g>
  </g>
</svg>
